<svg width="40" height="40" viewBox="0 0 40 40" fill="none" xmlns="http://www.w3.org/2000/svg">
  <!-- Fond avec dégradé -->
  <defs>
    <linearGradient id="gradient" x1="0%" y1="0%" x2="100%" y2="100%">
      <stop offset="0%" style="stop-color:#0EA5E9;stop-opacity:1" />
      <stop offset="100%" style="stop-color:#0284C7;stop-opacity:1" />
    </linearGradient>
  </defs>
  
  <!-- Carré arrondi avec fond -->
  <rect x="2" y="2" width="36" height="36" rx="8" fill="url(#gradient)" stroke="#0EA5E9" stroke-width="1"/>
  
  <!-- Lettre O stylisée avec flux -->
  <path d="M20 10 C14 10, 10 14, 10 20 C10 26, 14 30, 20 30 C26 30, 30 26, 30 20 C30 14, 26 10, 20 10 Z" 
        fill="white" opacity="0.95"/>
  
  <!-- Lignes de flux à l'intérieur -->
  <path d="M15 20 L20 15 L25 20 L20 25 Z" fill="#0EA5E9" opacity="0.3"/>
  <circle cx="20" cy="20" r="4" fill="#0EA5E9" opacity="0.5"/>
  
  <!-- Petites particules de flux -->
  <circle cx="12" cy="16" r="1.5" fill="white" opacity="0.8"/>
  <circle cx="28" cy="16" r="1.5" fill="white" opacity="0.8"/>
  <circle cx="12" cy="24" r="1.5" fill="white" opacity="0.8"/>
  <circle cx="28" cy="24" r="1.5" fill="white" opacity="0.8"/>
</svg>

